<svg width="20" height="20" viewBox="0 0 20 20" fill="none" xmlns="http://www.w3.org/2000/svg">
<path d="M10 0C4.47727 0 0 4.47727 0 10C0 15.5227 4.47727 20 10 20C15.5227 20 20 15.5227 20 10C20 4.47727 15.5227 0 10 0ZM10 1.81818C14.5186 1.81818 18.1818 5.48136 18.1818 10C18.1818 13.7449 15.6631 16.8952 12.2292 17.8667C12.187 17.7797 12.1581 17.6845 12.1609 17.5763C12.175 17.0268 12.1609 15.7443 12.1609 15.2734C12.1609 14.4653 11.6495 13.892 11.6495 13.892C11.6495 13.892 15.6605 13.9373 15.6605 9.65732C15.6605 8.00595 14.7976 7.14577 14.7976 7.14577C14.7976 7.14577 15.2509 5.38285 14.6404 4.63512C13.9564 4.56103 12.7311 5.28855 12.2079 5.62855C12.2079 5.62855 11.3791 5.28853 10 5.28853C8.62091 5.28853 7.79208 5.62855 7.79208 5.62855C7.2689 5.28855 6.04364 4.56148 5.35955 4.63512C4.74955 5.38285 5.20241 7.14577 5.20241 7.14577C5.20241 7.14577 4.33949 8.00506 4.33949 9.65643C4.33949 13.9364 8.3505 13.892 8.3505 13.892C8.3505 13.892 7.89379 14.412 7.84801 15.1571C7.57997 15.2517 7.21461 15.3631 6.86612 15.3631C6.02521 15.3631 5.38636 14.5463 5.15181 14.1681C4.9209 13.795 4.4475 13.4819 4.00568 13.4819C3.71477 13.4819 3.57244 13.628 3.57244 13.7944C3.57244 13.9608 3.98073 14.0766 4.24982 14.3848C4.8171 15.0348 4.80658 16.4968 6.82795 16.4968C7.06695 16.4968 7.49638 16.4418 7.83913 16.3947C7.83724 16.8536 7.83191 17.2937 7.83913 17.5755C7.8418 17.684 7.81233 17.7795 7.76989 17.8667C4.33648 16.8949 1.81818 13.7446 1.81818 10C1.81818 5.48136 5.48136 1.81818 10 1.81818Z" fill="white"/>
</svg>
